<?xml version="1.0" standalone="no"?>
<!DOCTYPE svg PUBLIC "-//W3C//DTD SVG 20010904//EN"
 "http://www.w3.org/TR/2001/REC-SVG-20010904/DTD/svg10.dtd">
<svg version="1.0" xmlns="http://www.w3.org/2000/svg"
 width="1000.000000pt" height="1000.000000pt" viewBox="0 0 1000.000000 1000.000000"
 preserveAspectRatio="xMidYMid meet">
<metadata>
Created by potrace 1.11, written by Peter Selinger 2001-2013
</metadata>
<g transform="translate(0.000000,1000.000000) scale(0.100000,-0.100000)"
fill="#000000" stroke="none">
<path d="M2270 9585 c-12 -14 -6 -62 10 -95 5 -8 29 -58 54 -110 26 -52 82
-153 124 -224 72 -120 102 -156 102 -126 0 13 49 128 62 145 4 6 27 39 51 75
52 80 74 107 155 187 39 39 58 65 50 67 -20 7 -188 44 -227 51 -19 3 -37 7
-40 9 -5 3 -43 10 -136 22 -94 13 -194 12 -205 -1z m462 -127 c11 -18 10 -25
-8 -42 -21 -22 -41 -20 -54 4 -23 43 36 79 62 38z m-98 -94 c23 -9 20 -51 -5
-64 -39 -22 -70 37 -31 59 21 13 17 12 36 5z m-64 -156 c0 -25 -40 -50 -57
-36 -20 16 -17 66 5 70 23 5 52 -13 52 -34z"/>
<path d="M4472 9550 c-18 -4 -53 -15 -78 -25 -34 -13 -44 -22 -44 -39 0 -23
58 -118 102 -168 12 -14 37 -43 55 -65 17 -21 50 -57 73 -81 35 -37 41 -40 48
-24 19 48 70 112 111 140 61 42 161 77 230 81 22 1 -14 36 -89 86 -65 43 -152
83 -200 92 -48 8 -175 10 -208 3z"/>
<path d="M3629 9476 c-2 -2 -20 -7 -39 -10 -195 -36 -409 -173 -571 -366 -55
-65 -129 -181 -149 -230 -7 -19 -17 -39 -21 -45 -4 -5 -17 -48 -29 -95 -28
-109 -29 -247 -2 -304 5 -11 17 -38 26 -58 10 -21 23 -38 29 -38 7 0 18 21 25
48 20 75 139 306 171 332 3 3 17 21 31 40 79 113 236 260 383 359 61 41 100
63 207 122 46 26 165 79 176 79 23 0 96 38 85 44 -6 4 -11 4 -11 1 0 -4 -12 2
-27 13 -44 30 -274 118 -284 108z"/>
<path d="M2907 9370 c-106 -79 -218 -239 -244 -350 -6 -26 -11 -100 -7 -100 2
0 16 19 31 43 23 36 97 131 113 147 3 3 32 36 65 74 33 38 70 80 81 93 32 35
49 82 38 101 -16 24 -37 22 -77 -8z"/>
<path d="M4970 9310 c-21 -21 -18 -45 10 -60 13 -7 22 -5 34 9 21 24 20 44 -4
59 -17 10 -23 9 -40 -8z"/>
<path d="M3932 9264 c-15 -26 -3 -54 23 -54 29 0 46 20 38 48 -7 27 -47 30
-61 6z"/>
<path d="M4818 9244 c-8 -17 -8 -27 2 -39 20 -24 47 -18 58 14 9 24 7 31 -6
37 -33 14 -43 12 -54 -12z"/>
<path d="M4065 9191 c-117 -50 -227 -103 -290 -141 -27 -16 -63 -37 -80 -45
-63 -31 -253 -182 -335 -264 -100 -100 -192 -225 -243 -331 -36 -72 -80 -190
-72 -190 2 0 22 35 45 78 141 269 406 508 751 676 74 36 143 66 152 66 9 0 17
5 17 10 0 6 6 10 14 10 8 0 27 5 43 12 15 6 31 12 36 13 4 2 10 4 15 5 4 1 11
2 16 1 4 -1 14 3 20 8 7 6 22 12 34 14 12 2 25 6 28 10 4 4 18 7 30 7 39 0 35
15 -11 45 -25 15 -50 34 -56 41 -15 18 -10 19 -114 -25z"/>
<path d="M3740 9190 c-26 -48 29 -85 58 -40 10 17 9 23 -8 40 -25 25 -37 25
-50 0z"/>
<path d="M4970 9189 c-25 -9 -54 -19 -65 -24 -26 -10 -112 -99 -131 -137 -15
-28 -14 -31 6 -51 22 -19 23 -19 33 -2 23 43 90 103 139 128 57 28 166 59 180
51 10 -7 10 17 -1 34 -9 16 -58 21 -88 11 -12 -5 -23 -5 -25 -1 -2 4 -23 0
-48 -9z"/>
<path d="M4692 9138 c-30 -30 0 -78 37 -58 25 13 28 55 5 64 -22 8 -28 8 -42
-6z"/>
<path d="M3563 9078 c-16 -26 -3 -68 22 -68 23 0 46 40 34 62 -11 21 -44 24
-56 6z"/>
<path d="M4329 9076 c-3 -3 -20 -7 -39 -9 -19 -2 -42 -7 -50 -10 -8 -3 -49
-17 -91 -31 -357 -117 -779 -453 -918 -731 -34 -66 -39 -83 -47 -156 -14 -115
62 -215 192 -253 18 -6 23 1 38 55 62 223 242 462 464 618 48 33 92 65 97 69
17 14 225 116 295 145 71 29 292 97 316 97 8 0 14 2 14 5 0 7 -75 75 -145 131
-33 27 -66 55 -73 62 -13 12 -44 16 -53 8z"/>
<path d="M5149 9066 c-2 -2 -17 -6 -34 -8 -57 -6 -144 -57 -171 -100 -41 -64
-40 -82 3 -115 21 -15 41 -32 45 -38 4 -5 8 -7 8 -2 0 4 18 -4 41 -19 85 -54
132 -40 161 48 27 77 5 238 -32 238 -9 0 -19 -2 -21 -4z"/>
<path d="M6745 8994 c-31 -25 -139 -74 -194 -89 -64 -17 -169 -16 -251 1 -36
8 -78 17 -95 20 -16 3 -34 7 -40 8 -47 12 -66 16 -105 22 -212 31 -415 -21
-648 -165 -28 -18 -50 -36 -48 -40 3 -4 23 -16 45 -27 23 -10 41 -22 41 -26 0
-5 5 -8 10 -8 12 0 73 -41 78 -52 2 -5 8 -8 13 -8 18 0 136 -100 242 -206 83
-81 114 -116 180 -199 27 -33 54 -67 61 -76 31 -38 167 -251 214 -335 42 -73
119 -231 172 -349 30 -68 115 -295 125 -338 4 -15 11 -29 16 -32 8 -5 57 44
100 100 13 17 26 32 29 35 11 10 77 106 105 155 73 126 161 339 178 435 3 14
8 36 11 50 24 107 37 362 22 445 -2 17 -8 50 -11 75 -16 114 -64 285 -113 400
-27 65 -106 220 -111 220 -3 0 -15 -8 -26 -16z"/>
<path d="M3418 8972 c-10 -2 -19 -8 -19 -13 -1 -5 -2 -15 -3 -21 -6 -37 46
-52 64 -19 18 34 -4 62 -42 53z"/>
<path d="M3276 8841 c-28 -10 -32 -57 -7 -70 15 -8 23 -7 35 5 19 19 20 35 4
56 -9 10 -20 13 -32 9z"/>
<path d="M4660 8790 c-14 -4 -72 -22 -130 -40 -58 -18 -109 -36 -114 -41 -6
-5 -16 -9 -24 -9 -36 0 -370 -179 -392 -210 -3 -4 -10 -9 -16 -11 -58 -20
-270 -238 -320 -329 -10 -19 -22 -37 -26 -40 -11 -9 -79 -160 -97 -217 -16
-51 -4 -39 30 30 26 53 112 191 129 207 3 3 21 25 41 50 37 46 137 146 178
178 12 9 34 27 49 40 38 32 188 130 242 159 25 13 52 27 60 32 15 9 124 56
170 73 14 6 39 16 55 23 17 8 66 23 110 35 44 12 91 26 104 31 l23 10 -22 19
c-13 11 -23 20 -24 19 -1 0 -12 -4 -26 -9z"/>
<path d="M3122 8674 c-24 -43 18 -78 52 -44 16 16 18 24 10 38 -15 23 -50 27
-62 6z"/>
<path d="M4670 8675 c-7 -8 -10 -25 -6 -39 5 -19 11 -24 29 -21 31 7 49 33 36
56 -12 23 -42 25 -59 4z"/>
<path d="M2559 8610 c0 -8 -2 -22 -4 -30 -59 -271 -76 -403 -76 -575 0 -89 17
-280 27 -296 2 -3 6 -21 9 -40 3 -19 13 -59 22 -89 9 -30 17 -59 19 -65 1 -5
16 -45 33 -88 41 -104 95 -205 211 -401 51 -87 109 -204 115 -235 2 -9 8 -38
14 -64 11 -49 15 -194 7 -257 -3 -19 -7 -64 -11 -100 -3 -36 -7 -76 -10 -90
-19 -95 -25 -314 -12 -405 11 -81 78 -232 108 -243 5 -2 9 -8 9 -13 0 -17 134
-141 143 -133 3 3 1 20 -3 37 -26 97 -32 230 -14 300 20 78 69 146 149 205 23
17 118 62 131 62 8 0 14 4 14 9 0 5 12 12 27 16 97 24 298 145 348 210 11 14
25 31 31 38 19 23 62 109 69 142 2 6 8 30 15 55 15 52 22 303 10 358 -5 20
-11 55 -14 77 -19 142 -99 297 -209 407 -88 87 -167 142 -387 268 -80 46 -178
106 -219 134 -40 28 -81 56 -89 61 -56 36 -176 154 -229 225 -62 83 -127 205
-153 285 -7 22 -15 45 -19 50 -3 6 -6 15 -7 20 -1 6 -10 44 -19 85 -17 72 -34
110 -36 80z"/>
<path d="M4466 8595 c-18 -18 -11 -41 14 -55 14 -7 23 -6 34 6 18 17 19 24 10
48 -8 20 -38 21 -58 1z"/>
<path d="M4778 8570 c-42 -14 -80 -29 -84 -33 -4 -4 -13 -7 -20 -7 -22 0 -310
-135 -324 -151 -3 -3 -20 -14 -39 -24 -19 -9 -43 -25 -54 -35 -10 -10 -32 -24
-48 -30 -16 -7 -29 -16 -29 -20 0 -4 -17 -19 -38 -32 -32 -22 -193 -177 -227
-220 -33 -40 -98 -143 -123 -194 -46 -91 -49 -116 -6 -54 76 112 193 238 309
335 33 28 62 52 65 55 27 27 219 150 307 197 105 56 283 134 283 125 0 -4 4
-2 8 3 6 9 29 18 102 40 3 1 13 5 23 8 9 4 24 9 33 12 15 5 14 9 -6 30 -26 28
-32 28 -132 -5z"/>
<path d="M5243 8529 c-57 -82 -184 -190 -318 -271 -87 -52 -296 -158 -400
-203 -49 -21 -94 -43 -100 -48 -11 -9 56 -4 72 6 18 12 162 22 288 21 176 -1
275 -31 347 -105 74 -77 61 -151 -45 -252 -39 -38 -85 -76 -102 -84 -16 -9
-32 -19 -35 -23 -7 -10 -86 -49 -134 -66 -162 -58 -310 -21 -431 107 -30 33
-55 62 -55 64 0 3 -11 22 -23 43 -13 20 -32 60 -42 87 -29 78 -31 80 -105 44
-36 -17 -72 -35 -80 -40 -8 -5 -22 -12 -30 -16 -51 -23 -175 -132 -227 -199
l-26 -34 49 -63 c27 -34 57 -71 66 -81 10 -11 18 -25 18 -32 0 -7 4 -14 8 -16
12 -4 110 -152 128 -191 8 -18 19 -39 24 -47 31 -49 61 -145 79 -250 11 -69 3
-283 -13 -308 -3 -5 -7 -19 -9 -33 -9 -48 -29 -113 -57 -185 l-28 -74 44 -26
c57 -34 181 -82 231 -90 61 -10 237 -11 251 -1 6 5 12 7 12 4 0 -3 26 1 58 9
31 8 66 16 76 19 34 8 91 27 101 35 6 3 31 14 57 24 43 16 46 19 41 44 -4 15
-7 51 -7 79 -1 29 -4 53 -7 53 -3 0 -5 10 -3 23 1 12 5 44 9 70 7 56 41 155
61 178 8 8 14 18 14 21 0 12 57 66 97 92 53 35 128 43 194 19 148 -52 250
-262 217 -446 -6 -28 -14 -58 -20 -64 -6 -7 -8 -13 -4 -13 14 0 -49 -88 -94
-131 -70 -68 -201 -127 -344 -155 -58 -11 -178 -18 -306 -17 -316 3 -668 2
-720 -1 -107 -7 -206 -18 -266 -30 -12 -2 -38 -7 -59 -10 -20 -3 -45 -11 -56
-16 -10 -6 -19 -8 -19 -5 0 11 -95 -59 -128 -94 -52 -56 -114 -201 -137 -319
-16 -82 -58 -190 -79 -204 -21 -14 6 -21 82 -24 99 -3 161 17 238 77 171 131
211 159 227 159 9 0 17 4 17 8 0 5 6 9 13 10 6 1 44 10 82 20 39 11 95 22 125
26 30 3 66 8 80 11 91 18 484 26 635 11 44 -4 96 -9 115 -10 34 -4 126 -14
185 -22 144 -18 309 -23 420 -12 33 4 60 7 60 8 0 1 11 3 25 6 14 2 54 14 90
25 36 12 70 22 75 24 16 3 44 15 122 50 103 47 205 116 278 188 65 65 155 190
155 217 0 9 5 21 10 26 9 9 60 178 58 193 0 3 1 8 2 11 16 38 13 369 -5 460
-7 37 -14 83 -20 126 -11 91 -45 244 -65 299 -12 33 -24 69 -27 79 -8 26 -58
122 -134 257 -8 13 -16 26 -19 29 -3 3 -21 30 -40 60 -72 115 -327 446 -365
472 -5 4 -7 8 -3 8 4 0 -7 15 -25 33 -18 18 -53 58 -79 88 -26 31 -107 119
-181 195 l-133 138 -31 -45z m138 -171 c0 -13 2 -32 4 -43 3 -11 7 -53 9 -93
3 -40 8 -77 11 -82 10 -17 -17 -22 -34 -6 -10 9 -20 16 -23 16 -3 0 -47 25
-98 56 -101 63 -100 54 -15 98 17 9 53 29 80 46 61 36 65 36 66 8z"/>
<path d="M3029 8528 c-13 -44 2 -79 31 -71 21 6 37 44 25 62 -5 9 -53 16 -56
9z"/>
<path d="M4296 8504 c-9 -8 -16 -18 -16 -20 0 -14 22 -44 33 -44 38 1 58 53
27 70 -24 13 -26 13 -44 -6z"/>
<path d="M4125 8406 c-17 -12 -18 -18 -7 -40 13 -30 28 -33 53 -10 18 16 15
42 -5 56 -15 11 -20 10 -41 -6z"/>
<path d="M2958 8353 c-19 -23 -12 -50 13 -58 40 -13 64 43 28 66 -20 12 -24
11 -41 -8z"/>
<path d="M3976 8301 c-13 -14 -14 -24 -7 -44 11 -29 37 -30 57 -2 26 35 -21
78 -50 46z"/>
<path d="M3826 8152 c-14 -42 21 -73 49 -45 24 24 15 57 -17 61 -19 2 -28 -2
-32 -16z"/>
<path d="M3715 8013 c-27 -26 -11 -63 27 -63 19 0 39 36 31 57 -7 18 -42 22
-58 6z"/>
<path d="M4385 7990 c-3 -6 1 -7 9 -4 18 7 21 14 7 14 -6 0 -13 -4 -16 -10z"/>
<path d="M4497 7954 c-1 -2 -37 -4 -80 -5 -64 -2 -77 -5 -72 -16 12 -33 93
-140 135 -180 41 -39 131 -92 170 -101 25 -5 153 -5 180 1 90 18 252 74 258
89 2 5 12 8 23 8 31 0 22 15 -33 53 -116 79 -271 133 -411 143 -107 8 -167 10
-170 8z"/>
<path d="M3623 7853 c-17 -6 -16 -48 1 -62 28 -23 63 12 51 50 -6 18 -26 23
-52 12z"/>
<path d="M7082 7058 c-17 -55 -22 -80 -36 -193 -7 -51 -28 -95 -47 -95 -26 0
-44 33 -64 120 -23 96 -39 132 -64 147 -35 22 -42 -11 -39 -186 2 -115 0 -163
-9 -172 -25 -25 -57 24 -81 123 -13 52 -46 114 -65 121 -22 8 -56 -12 -63 -37
-8 -33 1 -110 31 -254 14 -64 25 -129 25 -144 0 -41 -30 -35 -63 12 -22 30
-35 40 -56 40 -46 0 -54 -19 -48 -118 3 -48 9 -98 12 -112 3 -14 8 -36 11 -50
25 -128 105 -306 169 -378 65 -72 113 -92 211 -87 84 3 188 33 239 67 46 32
105 91 105 105 0 7 4 13 8 13 17 0 55 134 67 240 14 116 15 141 20 340 3 113
7 255 10 315 5 127 0 155 -26 155 -25 0 -43 -30 -75 -127 -20 -63 -31 -83 -45
-83 -24 0 -33 33 -44 164 -5 66 -26 106 -54 106 -13 0 -23 -11 -29 -32z"/>
<path d="M5135 6623 c-12 -2 -36 -17 -55 -33 -32 -27 -35 -35 -37 -86 -1 -63
17 -104 57 -127 72 -42 181 30 183 121 2 78 -71 139 -148 125z"/>
<path d="M6401 5874 c-7 -43 -24 -126 -38 -184 -13 -58 -26 -112 -28 -120 -4
-20 -40 -143 -60 -209 -46 -150 -196 -468 -226 -479 -5 -2 -9 -8 -9 -14 0 -16
-107 -146 -170 -206 -89 -86 -264 -192 -339 -207 -11 -2 -26 -7 -32 -11 -14
-8 -239 -13 -239 -4 0 3 -12 6 -27 6 -63 0 -241 54 -358 108 -68 32 -189 102
-217 125 -7 6 -31 25 -53 42 -135 104 -264 259 -335 404 -14 28 -28 52 -32 53
-5 2 -8 11 -8 21 0 9 -5 22 -12 29 -7 7 -8 12 -4 12 5 0 3 7 -4 15 -7 8 -9 15
-5 15 4 0 3 6 -2 13 -6 6 -16 35 -22 62 -7 28 -16 57 -19 65 -7 20 -7 19 -16
73 -8 53 -23 59 -76 32 l-29 -15 30 -88 c100 -283 199 -494 317 -676 50 -77
44 -69 146 -192 63 -76 117 -130 240 -239 52 -46 244 -176 326 -221 19 -10 38
-23 41 -27 3 -5 9 -8 13 -7 4 1 49 -19 101 -44 52 -25 96 -46 99 -46 2 0 25
-10 52 -22 27 -12 52 -22 56 -23 3 0 10 -3 14 -7 4 -5 17 -8 29 -8 11 0 26 -5
33 -12 7 -7 12 -8 12 -4 0 5 6 4 13 -1 6 -6 48 -21 92 -33 44 -13 86 -28 93
-33 7 -5 15 -7 18 -4 4 3 23 0 43 -8 33 -14 132 -40 191 -51 14 -2 36 -7 50
-11 37 -9 42 -10 84 -17 21 -3 41 -8 45 -10 3 -2 29 -7 56 -11 95 -14 140 -22
140 -25 0 -1 22 -3 49 -5 28 -3 56 -7 64 -10 8 -3 18 -3 23 0 7 5 -19 92 -54
175 -6 14 -9 29 -8 34 1 4 -2 13 -7 20 -6 6 -13 27 -18 46 -11 49 -11 50 -29
100 -9 25 -18 52 -20 60 -2 8 -15 60 -29 114 -15 55 -28 111 -31 125 -3 14 -7
37 -10 51 -3 14 -8 39 -10 55 -3 17 -7 41 -10 55 -13 58 -19 153 -19 270 0
171 11 252 51 370 54 159 151 313 290 460 70 73 75 89 30 90 -25 0 -109 44
-128 68 -14 16 -40 68 -83 166 -12 29 -13 28 -25 -50z"/>
<path d="M6117 5674 c-13 -8 -27 -19 -30 -26 -7 -21 0 -77 12 -92 33 -39 102
-15 119 41 10 33 9 38 -18 63 -32 30 -47 32 -83 14z"/>
<path d="M4310 5502 c-61 -21 -71 -112 -14 -142 22 -12 29 -12 52 1 39 21 57
63 43 98 -12 28 -56 51 -81 43z"/>
<path d="M2934 5454 c-80 -53 -190 -187 -228 -279 -15 -35 -28 -83 -42 -150
-2 -11 -9 -45 -15 -75 -16 -75 -15 -206 0 -255 30 -91 91 -156 197 -210 94
-48 161 -25 184 62 7 27 14 94 15 151 4 123 12 180 31 210 8 12 12 22 9 22 -8
0 9 20 76 94 70 76 82 99 75 141 -9 44 -74 135 -159 223 -94 96 -96 97 -143
66z"/>
<path d="M6790 5459 c-91 -21 -135 -39 -192 -78 -46 -31 -118 -104 -118 -119
0 -5 -6 -15 -14 -21 -14 -12 -52 -105 -62 -151 -2 -14 -9 -45 -14 -70 -9 -47
-6 -316 5 -360 3 -14 8 -38 10 -55 9 -66 15 -98 19 -114 3 -9 8 -32 11 -51 3
-19 15 -73 26 -120 11 -47 22 -93 24 -102 7 -32 46 -173 53 -188 3 -8 7 -19 7
-25 1 -5 4 -17 7 -25 3 -8 14 -37 24 -65 10 -27 19 -52 20 -55 4 -17 20 -54
52 -122 l37 -77 170 55 c94 30 184 57 200 61 46 8 292 11 363 4 l62 -7 2 31
c0 16 0 37 0 45 -1 8 -2 26 -2 40 2 296 -4 552 -15 615 -2 17 -7 57 -11 90 -3
33 -8 63 -11 68 -4 7 -12 41 -17 82 -2 11 -6 27 -9 35 -3 8 -11 38 -18 65 -6
28 -16 55 -20 60 -4 6 -7 12 -6 15 5 19 -110 277 -137 307 -6 6 -33 40 -60 76
-75 96 -177 158 -283 170 -16 2 -62 -4 -103 -14z"/>
<path d="M4625 5443 c11 -46 94 -203 147 -281 125 -180 297 -298 464 -317 65
-8 63 -8 118 -1 107 14 231 82 299 165 32 39 99 158 103 183 1 5 3 10 4 13 7
15 29 128 31 160 3 67 6 66 -83 31 -94 -37 -285 -96 -332 -103 -57 -9 -211
-10 -241 -2 -16 4 -43 10 -60 12 -27 5 -154 47 -280 93 -27 11 -51 22 -53 27
-2 4 -10 7 -18 7 -8 0 -34 9 -56 20 -52 25 -51 25 -43 -7z"/>
<path d="M3930 5403 c-14 -9 -31 -23 -38 -30 -7 -7 -20 -16 -28 -21 -12 -7 -7
-24 28 -103 24 -52 53 -111 66 -132 12 -21 22 -44 22 -52 0 -7 4 -15 9 -17 23
-8 191 -385 191 -428 0 -9 3 -20 7 -24 4 -3 8 -12 9 -19 1 -7 10 -43 19 -82
22 -93 25 -113 29 -225 2 -59 -2 -112 -11 -140 -33 -112 -115 -241 -213 -338
-29 -29 -51 -54 -49 -56 2 -2 74 -40 159 -84 85 -44 175 -92 200 -106 74 -42
185 -87 253 -102 9 -2 27 -7 40 -10 12 -3 31 -7 42 -9 11 -1 27 -5 35 -8 14
-5 72 -15 130 -23 14 -2 39 -6 55 -8 133 -24 143 -24 163 -2 56 62 151 117
228 132 47 9 135 12 148 5 6 -2 24 -6 42 -7 47 -3 128 -32 169 -60 l36 -24 62
62 c60 61 129 98 181 98 10 0 34 14 53 30 18 17 38 30 43 30 20 0 9 16 -12 17
-28 3 -100 18 -203 45 -44 11 -84 21 -90 22 -53 10 -389 125 -475 164 -30 13
-71 31 -90 39 -88 39 -187 88 -212 105 -16 11 -28 17 -28 13 0 -7 -132 83
-179 122 -59 49 -168 163 -213 222 -24 31 -46 58 -49 61 -17 14 -154 230 -207
325 -95 172 -200 397 -253 543 -18 50 -36 92 -39 92 -3 0 -17 -8 -30 -17z"/>
<path d="M6010 5320 c-12 -12 -20 -33 -20 -53 0 -68 77 -97 120 -45 41 49 11
118 -50 118 -17 0 -39 -9 -50 -20z"/>
<path d="M4450 5208 c-26 -28 -26 -68 1 -102 17 -22 27 -26 52 -22 36 6 66 40
67 77 0 35 -34 69 -70 69 -17 0 -38 -9 -50 -22z"/>
<path d="M3550 5099 c-19 -5 -48 -11 -65 -14 -48 -9 -138 -44 -163 -65 -30
-25 -35 -55 -15 -93 22 -44 36 -55 80 -65 31 -7 48 -5 85 12 25 12 51 26 59
33 16 13 46 0 133 -59 30 -21 66 -38 81 -38 37 0 93 57 90 90 -1 14 -3 32 -4
41 -3 47 -126 143 -198 155 -16 2 -32 6 -38 8 -5 1 -26 -1 -45 -5z"/>
<path d="M5823 5002 c-35 -17 -46 -50 -31 -94 12 -34 37 -49 69 -43 54 11 81
76 49 118 -26 32 -49 37 -87 19z"/>
<path d="M4743 4930 c-43 -17 -56 -78 -25 -116 23 -30 42 -34 75 -17 62 31 63
112 3 133 -16 5 -29 10 -30 9 -1 0 -11 -4 -23 -9z"/>
<path d="M5544 4779 c-29 -10 -51 -44 -48 -71 1 -13 3 -26 3 -30 1 -4 10 -16
22 -27 37 -34 102 -8 112 46 10 55 -39 101 -89 82z"/>
<path d="M3484 4752 c-24 -16 -32 -53 -33 -161 -1 -63 -7 -123 -12 -133 -16
-30 -45 -4 -93 83 -53 98 -67 116 -97 128 -46 17 -53 2 -54 -114 0 -59 3 -109
8 -112 4 -2 5 -8 2 -13 -3 -5 -7 -23 -9 -41 -8 -70 -79 -85 -142 -29 -19 17
-47 30 -62 31 -15 0 -35 2 -44 4 -10 2 -29 -5 -42 -16 -54 -42 -11 -145 110
-266 105 -105 263 -210 364 -242 41 -13 84 -27 96 -31 21 -8 253 -5 289 3 11
3 40 8 65 12 87 14 160 52 210 109 28 33 70 103 75 126 2 8 10 41 18 73 16 59
17 279 3 337 -4 14 -9 41 -11 60 -16 114 -54 187 -91 173 -17 -6 -34 -35 -39
-66 -2 -12 -7 -38 -10 -57 -3 -19 -8 -48 -11 -65 -6 -41 -25 -58 -57 -50 -33
9 -53 52 -62 132 -9 75 -35 123 -68 123 -47 0 -64 -26 -73 -115 -11 -108 -15
-125 -31 -125 -21 0 -35 20 -87 125 -44 88 -87 133 -112 117z"/>
<path d="M5055 4696 c-30 -31 -32 -65 -4 -100 25 -32 59 -34 93 -3 49 44 31
113 -33 123 -24 4 -37 -1 -56 -20z"/>
<path d="M3577 3714 c-1 -2 -21 -5 -42 -8 -22 -2 -40 -5 -40 -6 0 -1 -13 -4
-28 -6 -49 -8 -200 -64 -286 -107 -161 -78 -224 -173 -216 -324 2 -43 6 -89
10 -103 3 -14 7 -29 9 -35 6 -28 29 -94 42 -122 8 -17 14 -34 14 -38 0 -21 96
-150 157 -210 80 -80 95 -92 183 -150 101 -66 142 -86 275 -135 58 -21 74 -25
122 -34 13 -3 26 -7 30 -9 15 -9 208 -29 278 -28 76 0 193 13 295 32 76 14 74
14 88 22 6 5 12 6 12 4 0 -15 361 105 463 153 93 44 125 131 103 285 -13 99
-20 137 -42 240 -29 135 -32 147 -38 152 -2 2 -95 5 -206 5 -174 1 -211 4
-259 20 -77 27 -178 75 -229 109 -24 16 -45 29 -48 29 -9 0 -129 83 -132 92
-2 4 -8 8 -12 8 -8 0 -117 66 -145 87 -15 12 -107 55 -127 59 -10 2 -28 7 -40
10 -25 6 -186 13 -191 8z"/>
<path d="M7287 3654 c-1 -1 -38 -5 -82 -8 -44 -4 -107 -9 -140 -12 -65 -6
-234 -42 -250 -53 -5 -4 -29 -14 -53 -21 -51 -16 -60 -30 -57 -92 4 -92 43
-138 110 -132 17 2 64 13 105 24 41 11 83 22 92 25 9 2 26 9 37 15 12 6 21 8
21 6 0 -3 12 -1 28 5 37 14 193 20 267 10 33 -5 65 -7 70 -5 19 8 7 160 -18
217 -11 26 -15 27 -70 25 -32 -2 -59 -3 -60 -4z"/>
<path d="M6150 3594 c-14 -10 -36 -28 -49 -40 -26 -24 -65 -40 -181 -74 -66
-20 -181 -80 -245 -128 l-21 -16 23 -57 c21 -53 37 -114 48 -194 6 -38 7 -190
1 -230 -12 -92 -20 -128 -45 -202 l-27 -81 31 -7 c43 -10 216 -16 229 -7 6 3
16 7 21 8 29 3 76 18 81 25 3 5 28 -3 57 -17 28 -15 70 -27 92 -28 60 -1 91
23 112 90 18 59 27 67 83 78 19 4 43 13 53 20 40 31 26 102 -28 144 -34 27
-35 34 -5 39 60 9 95 62 70 108 -12 22 -52 35 -132 40 -62 4 -46 30 22 39 75
9 100 17 115 39 21 30 19 62 -8 92 -20 24 -33 28 -101 34 -64 5 -80 9 -82 23
-3 23 14 35 61 42 55 9 119 42 134 69 55 104 -35 193 -207 204 -63 4 -81 1
-102 -13z m225 -110 c13 -17 12 -21 -15 -46 -27 -25 -54 -34 -77 -25 -11 3
-12 81 -1 88 20 13 78 2 93 -17z"/>
<path d="M5323 3359 c-59 -11 -102 -36 -109 -63 -3 -14 7 -60 27 -117 l33 -94
0 -207 -1 -208 31 -2 c165 -8 190 17 202 203 18 283 9 395 -34 455 -24 32 -83
45 -149 33z"/>
<path d="M7480 3269 c-43 -19 -172 -58 -215 -65 -11 -2 -36 -6 -55 -10 -91
-18 -262 0 -420 46 -19 5 -51 10 -70 10 -34 0 -36 -3 -67 -71 -18 -39 -33 -77
-33 -84 0 -7 -3 -15 -7 -17 -7 -3 -49 -110 -58 -148 -49 -198 -38 -297 42
-376 57 -56 139 -77 230 -60 59 12 183 102 183 133 0 7 5 13 11 13 5 0 8 4 4
9 -3 5 0 13 6 17 7 4 9 3 6 -2 -3 -6 2 -28 12 -50 19 -43 59 -67 96 -60 11 3
25 5 31 5 17 1 45 48 49 83 5 39 11 45 20 17 9 -27 29 -49 44 -49 6 0 11 -4
11 -9 0 -5 12 -6 28 -2 34 9 53 47 55 111 2 56 8 61 30 27 19 -30 69 -51 101
-43 32 8 53 59 56 136 l1 35 24 -28 c34 -38 78 -43 109 -12 39 38 45 123 13
163 -6 8 -12 24 -14 35 -4 30 -54 128 -103 205 -44 69 -51 71 -120 41z m-677
-525 c44 -2 82 -6 85 -8 3 -3 -3 -26 -13 -52 -21 -57 -61 -84 -112 -77 -42 6
-61 22 -72 60 -10 36 5 96 21 87 7 -4 48 -9 91 -10z"/>
</g>
</svg>
